# Blender v2.78 (sub 0) OBJ File: '15.blend'
# www.blender.org
mtllib Sunflower_01.mtl
g sunflower_Circle.001
v -0.000000 -0.000000 -0.730101
v -0.516259 -0.000000 -0.516259
v -0.730101 -0.000000 -0.000000
v -0.516259 -0.000000 0.516259
v 0.000000 0.000000 0.730101
v 0.516259 0.000000 0.516259
v 0.730101 0.000000 -0.000000
v 0.516259 0.000000 -0.516259
v -0.000000 1.077523 -0.853558
v -0.603557 1.077523 -0.603557
v -0.853558 1.077523 -0.000000
v -0.603557 1.077523 0.603556
v 0.000000 1.077523 0.853558
v 0.603557 1.077523 0.603556
v 0.853558 1.077523 -0.000000
v 0.603557 1.077523 -0.603556
v -0.000000 1.077523 -0.980751
v -0.693496 1.077523 -0.693496
v -0.980751 1.077523 -0.000000
v -0.693496 1.077523 0.693496
v 0.000000 1.077523 0.980751
v 0.693496 1.077523 0.693495
v 0.980751 1.077523 -0.000000
v 0.693496 1.077523 -0.693495
v -0.000000 1.455460 -0.980751
v -0.693496 1.455460 -0.693496
v -0.980751 1.455460 -0.000000
v -0.693496 1.455460 0.693496
v 0.000000 1.455460 0.980751
v 0.693496 1.455460 0.693495
v 0.980751 1.455460 -0.000000
v 0.693496 1.455460 -0.693495
v -0.000000 1.455460 -0.872432
v -0.616902 1.455460 -0.616902
v -0.872431 1.455460 -0.000000
v -0.616902 1.455460 0.616902
v 0.000000 1.455460 0.872431
v 0.616902 1.455460 0.616902
v 0.872431 1.455460 -0.000000
v 0.616902 1.455460 -0.616902
v -0.000000 1.350924 -0.872432
v -0.616902 1.350924 -0.616902
v -0.872431 1.350924 -0.000000
v -0.616902 1.350924 0.616902
v 0.000000 1.350924 0.872431
v 0.616902 1.350924 0.616902
v 0.872431 1.350924 -0.000000
v 0.616902 1.350924 -0.616902
v -0.000000 1.527831 -0.534683
v -0.378078 1.527831 -0.378078
v -0.534683 1.527831 -0.000000
v -0.378078 1.527831 0.378078
v 0.000000 1.527831 0.534683
v 0.378078 1.527831 0.378078
v 0.534683 1.527831 -0.000000
v 0.378078 1.527831 -0.378078
v -0.000000 1.568037 -0.000000
v 0.442487 0.000000 -0.000000
v 0.312886 0.000000 0.312886
v 0.000000 0.000000 0.442487
v -0.312886 -0.000000 0.312886
v -0.442488 -0.000000 -0.000000
v -0.312886 -0.000000 -0.312886
v -0.000000 -0.000000 -0.442488
v 0.312886 0.000000 -0.312886
v -0.000000 -0.000000 -0.000000
v 0.647612 7.637458 -1.240198
v 0.647612 8.669277 -0.812805
v 0.647612 9.096671 0.219014
v 0.647612 8.669277 1.250833
v 0.647612 7.637458 1.678226
v 0.647612 6.605639 1.250833
v 0.647612 6.178246 0.219014
v 0.647612 6.605639 -0.812805
v 0.829439 7.637458 -1.020671
v 0.829439 8.514049 -0.657575
v 0.829439 8.877143 0.219014
v 0.829439 8.514049 1.095604
v 0.829439 7.637458 1.458699
v 0.829439 6.760869 1.095604
v 0.829439 6.397774 0.219014
v 0.829439 6.760869 -0.657575
v 0.928389 7.637458 -0.480876
v 0.928389 8.132356 -0.275883
v 0.928389 8.337349 0.219014
v 0.928389 8.132356 0.713912
v 0.928389 7.637458 0.918905
v 0.928389 7.142561 0.713911
v 0.928389 6.937568 0.219014
v 0.928389 7.142561 -0.275883
v 0.995630 7.637458 0.219014
v 0.716539 9.446715 0.050397
v 0.846398 8.674739 -1.701969
v 0.846398 9.558441 -0.818266
v 0.846398 9.729267 -0.405858
v 0.846398 9.729267 0.843886
v 0.846398 9.558441 1.256295
v 0.846398 8.262330 2.310822
v 0.846398 7.012587 2.310822
v 0.846398 6.600178 2.139997
v 0.846398 5.545650 0.843886
v 0.846398 5.545650 -0.405857
v 0.846398 5.716476 -0.818266
v 0.846398 7.012587 -1.872794
v 0.846398 8.262330 -1.872794
v 0.716539 7.806076 -1.590243
v 0.716539 8.797565 -1.179555
v 0.846398 6.600178 -1.701969
v 0.716539 6.477351 -1.179555
v 0.846398 5.716476 1.256295
v 0.716539 6.238890 1.379122
v 0.716539 5.828201 0.387632
v 0.846398 8.674739 2.139997
v 0.716539 8.797565 1.617583
v 0.716539 7.806076 2.028272
v 0.671968 6.642160 -0.776284
v 0.671968 6.229894 0.219014
v 0.671968 6.642160 1.214312
v 0.671968 7.637458 1.626578
v 0.671968 8.632756 1.214312
v 0.671968 9.045023 0.219014
v 0.671968 7.637458 -1.188550
v 0.671968 8.632756 -0.776284
v 0.557122 7.287796 -1.168713
v 0.557122 8.181523 -1.105507
v 0.557122 8.959333 -0.333663
v 0.557122 8.868362 0.952649
v 0.557122 8.191708 1.539917
v 0.557122 6.905396 1.448946
v 0.557122 6.318128 0.772291
v 0.557122 6.409098 -0.514021
v 0.692652 5.304438 0.322058
v 0.692652 6.060787 1.942559
v 0.692652 7.741474 2.553607
v 0.692652 9.935329 0.649564
v 0.692652 9.566903 -1.100393
v 0.692652 9.216675 -1.503930
v 0.692652 6.319023 -1.708858
v 0.692652 5.342133 -0.210935
v 0.692652 8.958439 2.147487
v 0.692652 7.208480 2.515912
v 0.692652 9.361975 1.797258
v 0.692652 9.973023 0.116571
v 0.692652 8.068980 -2.077284
v 0.692652 7.535987 -2.114978
v 0.692652 5.915486 -1.358629
v 0.692652 5.710558 1.539022
v 0.557122 5.888761 -0.548347
v 0.557122 5.798138 0.733044
v 0.557122 5.973973 -0.718919
v 0.557122 6.944134 -1.560920
v 0.557122 8.406392 -1.530656
v 0.557122 7.125001 -1.621279
v 0.557122 9.418965 -0.475283
v 0.557122 8.576964 -1.445443
v 0.557122 9.388700 0.986976
v 0.557122 9.479323 -0.294415
v 0.557122 8.333327 1.999549
v 0.557122 9.303488 1.157548
v 0.557122 8.152460 2.059907
v 0.557122 6.871068 1.969284
v 0.557122 5.858496 0.913911
v 0.557122 6.700496 1.884071
v 0.462029 7.637458 -1.101977
v 0.462029 8.571540 -0.715067
v 0.462029 8.958449 0.219014
v 0.462029 8.571540 1.153096
v 0.462029 7.637458 1.540005
v 0.462029 6.703377 1.153096
v 0.462029 6.316467 0.219014
v 0.462029 6.703377 -0.715067
v 0.293152 7.448778 -0.432416
v 0.227103 7.901582 -0.241616
v 0.199745 8.089140 0.219014
v 0.227103 7.901582 0.679645
v 0.293152 7.448778 0.870444
v 0.359200 6.995975 0.679645
v 0.386558 6.808417 0.219014
v 0.359200 6.995975 -0.241616
v 0.118656 7.078923 -0.053924
v 0.019288 7.236118 0.025186
v -0.022033 7.302051 0.217839
v 0.018897 7.238100 0.411180
v 0.118102 7.081726 0.491953
v 0.217470 6.924531 0.412842
v 0.258792 6.858597 0.220190
v 0.217862 6.922549 0.026849
v -0.057870 5.205801 0.069539
v -0.163174 5.214890 0.113319
v -0.206792 5.218655 0.219014
v -0.163174 5.214890 0.324709
v -0.057870 5.205801 0.368490
v 0.047434 5.196713 0.324709
v 0.091052 5.192948 0.219014
v 0.047434 5.196713 0.113319
v 0.016281 2.489239 -0.206791
v -0.112508 2.505203 -0.152490
v -0.165855 2.507094 -0.023012
v -0.112508 2.493808 0.105796
v 0.016281 2.473123 0.158481
v 0.145072 2.457161 0.104179
v 0.198418 2.455268 -0.025298
v 0.145072 2.468556 -0.154106
v 0.101111 6.545919 0.080013
v 0.019214 6.643662 0.021716
v 0.100871 6.547136 0.359035
v 0.134935 6.505937 0.219735
v -0.063024 6.743124 0.358015
v 0.018874 6.645381 0.416313
v -0.062784 6.741908 0.078993
v -0.096847 6.783106 0.218293
v -0.023281 3.967864 0.233813
v 0.085661 3.954361 0.187881
v -0.177349 3.996600 0.080290
v -0.132224 3.985360 0.189248
v -0.023281 3.981495 -0.075167
v -0.132224 3.994999 -0.029234
v 0.085661 3.964000 -0.030601
v 0.130786 3.952760 0.078356
v 0.019943 1.467223 -0.221887
v -0.140131 1.481040 -0.155336
v -0.206436 1.486761 0.005334
v -0.140131 1.481040 0.166003
v 0.019943 1.467223 0.232554
v 0.180017 1.453408 0.166003
v 0.246322 1.447686 0.005334
v 0.180017 1.453408 -0.155335
v 0.617076 8.181523 -1.105507
v 0.617076 7.287796 -1.168713
v 0.617076 8.959333 -0.333663
v 0.617076 8.868362 0.952649
v 0.617076 8.191708 1.539917
v 0.617076 6.905396 1.448946
v 0.617076 6.318128 0.772291
v 0.617076 6.409098 -0.514021
v 0.617076 8.333327 1.999549
v 0.617076 9.303488 1.157548
v 0.752606 9.361975 1.797258
v 0.617076 5.858496 0.913911
v 0.617076 6.700496 1.884071
v 0.752606 6.060787 1.942559
v 0.617076 5.973973 -0.718919
v 0.752606 5.915486 -1.358629
v 0.617076 8.406392 -1.530656
v 0.617076 7.125001 -1.621279
v 0.752606 7.535987 -2.114978
v 0.752606 6.319023 -1.708858
v 0.752606 5.342133 -0.210935
v 0.752606 5.304438 0.322058
v 0.752606 5.710558 1.539022
v 0.752606 7.208480 2.515912
v 0.752606 7.741474 2.553607
v 0.752606 8.958439 2.147487
v 0.752606 9.935329 0.649564
v 0.752606 9.973023 0.116571
v 0.752606 9.566903 -1.100393
v 0.752606 9.216675 -1.503930
v 0.752606 8.068980 -2.077284
v 0.617076 9.418965 -0.475283
v 0.617076 8.152460 2.059907
v 0.617076 6.871068 1.969284
v 0.617076 9.388700 0.986976
v 0.617076 9.479323 -0.294415
v 0.617076 8.576964 -1.445443
v 0.617076 6.944134 -1.560920
v 0.617076 5.888761 -0.548347
v 0.617076 5.798138 0.733044
v 0.581504 7.637458 -1.188550
v 0.581504 8.632756 -0.776284
v 0.581504 9.045023 0.219014
v 0.581504 8.632756 1.214312
v 0.581504 7.637458 1.626578
v 0.581504 6.642160 1.214312
v 0.581504 6.229894 0.219014
v 0.581504 6.642160 -0.776284
v 0.755934 5.545650 -0.405857
v 0.755934 5.716476 1.256295
v 0.755934 7.012587 2.310822
v 0.755934 9.558441 1.256295
v 0.755934 9.729267 -0.405858
v 0.755934 9.558441 -0.818266
v 0.755934 7.012587 -1.872794
v 0.755934 5.716476 -0.818266
v 0.755934 8.262330 2.310822
v 0.755934 6.600178 2.139997
v 0.755934 8.674739 2.139997
v 0.755934 9.729267 0.843886
v 0.755934 8.674739 -1.701969
v 0.755934 8.262330 -1.872794
v 0.755934 6.600178 -1.701969
v 0.755934 5.545650 0.843886
v 0.626075 6.238890 -0.941093
v 0.626075 5.828201 0.050397
v 0.626075 6.477351 -1.179555
v 0.626075 7.468841 -1.590243
v 0.626075 8.797565 -1.179555
v 0.626075 7.806076 -1.590243
v 0.626075 9.446715 0.050397
v 0.626075 9.036027 -0.941094
v 0.626075 9.036027 1.379122
v 0.626075 9.446715 0.387632
v 0.626075 7.806076 2.028272
v 0.626075 8.797565 1.617583
v 0.626075 7.468841 2.028272
v 0.626075 6.477351 1.617583
v 0.626075 5.828201 0.387632
v 0.626075 6.238890 1.379122
v 0.716539 7.468841 2.028272
v 0.716539 6.477351 1.617583
v 0.716539 9.036027 1.379122
v 0.716539 9.446715 0.387632
v 0.716539 9.036027 -0.941094
v 0.716539 7.468841 -1.590243
v 0.716539 6.238890 -0.941093
v 0.716539 5.828201 0.050397
v -0.020589 3.917494 1.255006
v 0.086984 3.808460 1.134927
v -0.128989 3.835723 1.149167
v -0.064374 1.769442 0.151405
v 0.018437 1.748387 0.179567
v 0.101247 1.756493 0.145351
v -0.020827 3.932514 1.221953
v 0.086746 3.823481 1.101874
v -0.129227 3.850743 1.116115
v -0.064508 1.777947 0.132689
v 0.018302 1.756892 0.160851
v 0.101113 1.764998 0.126636
v 0.026788 3.565114 -1.638838
v -0.080786 3.478822 -1.501502
v 0.135187 3.503165 -1.520302
v 0.073026 1.644020 -0.175817
v -0.012240 1.617593 -0.200565
v -0.097507 1.631986 -0.167343
v 0.027025 3.585697 -1.608930
v -0.080548 3.499405 -1.471594
v 0.135425 3.523749 -1.490394
v 0.073165 1.656020 -0.158380
v -0.012102 1.629593 -0.183128
v -0.097368 1.643986 -0.149906
v 0.019943 1.467224 0.005334
v 0.370974 2.812760 -0.781227
v 0.351963 2.347946 -0.463741
v -0.007661 2.215686 -0.551297
v 0.000618 2.676590 -0.871177
v -0.365885 2.266149 -0.402629
v -0.368236 2.729399 -0.716837
v 0.352201 2.368529 -0.433834
v 0.371212 2.833343 -0.751320
v 0.000855 2.697173 -0.841270
v -0.007424 2.236269 -0.521390
v -0.367998 2.749982 -0.686930
v -0.365648 2.286732 -0.372722
v -0.369988 3.008542 0.529176
v -0.352483 2.535906 0.316399
v 0.013715 2.418969 0.427730
v 0.006091 2.888446 0.643310
v 0.378623 2.443038 0.269581
v 0.380787 2.913727 0.479639
v -0.352720 2.550927 0.283346
v -0.370226 3.023562 0.496124
v 0.005854 2.903467 0.610257
v 0.013477 2.433990 0.394677
v 0.380550 2.928747 0.446586
v 0.378385 2.458058 0.236528
v -0.007794 5.122098 -0.809248
v -0.067963 5.073833 -0.732432
v 0.052837 5.087450 -0.742947
v 0.018069 4.047578 0.009060
v -0.029623 4.032796 -0.004782
v -0.077315 4.040847 0.013800
v -0.007661 5.133611 -0.792520
v -0.067830 5.085346 -0.715704
v 0.052970 5.098962 -0.726219
v 0.018146 4.054290 0.018813
v -0.029546 4.039508 0.004971
v -0.077238 4.047559 0.023553
v 0.184719 4.701286 -0.329563
v 0.174086 4.441303 -0.151984
v -0.027062 4.367326 -0.200956
v -0.022432 4.625123 -0.379874
v -0.227427 4.395551 -0.117802
v -0.228742 4.654660 -0.293548
v 0.174219 4.452816 -0.135256
v 0.184852 4.712799 -0.312835
v -0.022299 4.636635 -0.363146
v -0.026929 4.378839 -0.184228
v -0.228609 4.666173 -0.276820
v -0.227294 4.407063 -0.101074
vn -0.5669 -0.7611 -0.3153
vn -0.5669 -0.3153 0.7611
vn -0.5669 0.7611 0.3153
vn -0.5669 0.3153 -0.7611
vn -0.5669 -0.3153 -0.7611
vn -0.5669 -0.7611 0.3153
vn -0.5669 0.3153 0.7611
vn -0.5669 0.7611 -0.3153
vn -0.9805 -0.1878 -0.0581
vn -0.9665 -0.1366 0.2173
vn -0.9545 0.2686 0.1293
vn -0.9563 0.0725 -0.2834
vn -0.9665 -0.1366 -0.2173
vn -0.9805 -0.1878 0.0581
vn -0.9563 0.0725 0.2834
vn -0.9545 0.2686 -0.1293
vn -0.8578 -0.0036 0.5139
vn -0.9497 0.2452 -0.1950
vn -0.2471 -0.9128 -0.3252
vn -0.6428 -0.4489 0.6206
vn -0.9498 0.2456 0.1936
vn -0.8571 -0.0045 -0.5151
vn -0.6405 -0.4509 -0.6216
vn -0.2506 -0.9111 0.3272
vn 0.4573 -0.0473 -0.8881
vn 0.9504 -0.0388 0.3085
vn -0.4768 0.0044 0.8790
vn -0.9482 0.0610 -0.3118
vn 0.9509 -0.0386 -0.3070
vn 0.4532 -0.0474 0.8902
vn -0.9487 0.0612 0.3103
vn -0.4731 0.0039 -0.8810
vn 0.3844 -0.0363 0.9224
vn -0.9246 -0.0335 0.3795
vn -0.3800 0.0713 -0.9222
vn 0.3895 0.0912 -0.9165
vn 0.9246 0.0154 0.3807
vn -0.3858 -0.0566 0.9208
vn -0.9243 0.0193 -0.3811
vn 0.9242 0.0678 -0.3758
vn -0.5967 0.0048 -0.8024
vn -0.9570 0.1346 0.2568
vn 0.3486 -0.2367 0.9069
vn 0.8989 -0.3183 -0.3011
vn -0.9561 0.1341 -0.2604
vn -0.6029 0.0069 0.7978
vn 0.8971 -0.3183 0.3064
vn 0.3583 -0.2386 -0.9026
vn 0.9235 0.0725 -0.3767
vn -0.9241 0.0211 -0.3816
vn -0.3906 -0.1104 0.9139
vn 0.9243 -0.0136 0.3815
vn 0.3911 0.1188 -0.9127
vn -0.3755 0.0982 -0.9216
vn -0.9238 -0.0650 0.3774
vn 0.3766 -0.0899 0.9220
vn 0.9244 0.0323 -0.3800
vn 0.3911 0.0696 0.9177
vn -0.9220 0.0477 0.3842
vn -0.3848 0.0126 -0.9229
vn 0.3830 0.0147 -0.9236
vn 0.9236 0.0555 0.3794
vn -0.3740 0.0660 0.9251
vn -0.9239 0.0261 -0.3817
vn 0.3936 -0.3160 0.8633
vn -0.9730 0.2075 0.1013
vn 0.9247 -0.3441 -0.1630
vn -0.9364 -0.3219 -0.1396
vn -0.3949 0.2967 -0.8695
vn -0.3894 0.4605 -0.7977
vn 0.3945 0.4760 -0.7860
vn 0.3894 -0.4605 0.7977
vn -0.0906 -0.9069 -0.4115
vn -0.7384 0.6120 0.2834
vn -0.3703 -0.3256 0.8700
vn 0.9649 0.2415 0.1028
vn -0.0813 -0.9076 -0.4119
vn 0.8096 0.5366 0.2380
vn 0.3671 0.3070 -0.8780
vn -0.3935 -0.4622 -0.7947
vn 0.9730 0.1866 -0.1361
vn -0.9249 -0.3096 0.2205
vn 0.9366 -0.2920 0.1935
vn 0.3948 0.4444 0.8041
vn 0.3897 0.5931 0.7045
vn -0.3946 0.6064 0.6903
vn -0.3897 -0.5931 -0.7045
vn 0.0906 -0.8207 0.5641
vn 0.7384 0.5528 -0.3863
vn 0.3705 -0.4728 -0.7995
vn -0.9649 0.2198 -0.1436
vn 0.0813 -0.8213 0.5646
vn -0.8096 0.4865 -0.3284
vn -0.3673 0.4561 0.8106
vn -0.0860 -0.9963 0.0000
vn 0.3797 -0.5322 -0.7567
vn -0.3906 -0.5191 -0.7602
vn -0.3797 0.5322 0.7567
vn 0.3906 0.5191 0.7602
vn 0.9994 -0.0315 0.0137
vn -1.0000 0.0002 0.0078
vn 0.3946 -0.6064 -0.6903
vn -0.3796 -0.3913 0.8383
vn 0.3905 -0.3778 0.8395
vn 0.3796 0.3913 -0.8383
vn -0.3905 0.3778 -0.8395
vn -0.9994 -0.0334 -0.0080
vn 1.0000 -0.0012 -0.0077
vn -0.3945 -0.4760 0.7860
vn 0.0907 -0.8207 0.5641
vn 0.9948 0.0940 -0.0389
vn 0.9948 0.0389 -0.0940
vn 0.9948 -0.0389 -0.0940
vn 0.9948 -0.0940 -0.0389
vn 0.9948 -0.0940 0.0389
vn 0.9948 -0.0389 0.0940
vn 0.9948 0.0389 0.0940
vn 0.9948 0.0940 0.0389
vn 0.9583 -0.2639 -0.1093
vn 0.9583 0.1093 -0.2639
vn 0.9583 0.2639 0.1093
vn 0.9583 -0.2639 0.1093
vn 0.9583 -0.1093 -0.2639
vn 0.9583 0.2639 -0.1093
vn 0.9583 0.1093 0.2639
vn 0.9583 -0.1093 0.2639
vn -0.9678 0.0177 -0.2509
vn -0.9678 -0.1649 -0.1900
vn -0.9678 -0.1900 0.1649
vn -0.9678 0.1649 0.1900
vn -0.9678 0.1900 -0.1649
vn -0.9678 -0.2509 -0.0177
vn -0.9678 -0.0177 0.2509
vn -0.9678 0.2509 0.0177
vn -1.0000 -0.0000 -0.0000
vn 0.9678 -0.0177 0.2509
vn 0.9678 0.1649 0.1900
vn 0.9678 0.1900 -0.1649
vn 0.9678 -0.1649 -0.1900
vn 0.9678 -0.1900 0.1649
vn 0.9678 0.2509 0.0177
vn 0.9678 0.0177 -0.2509
vn 0.9678 -0.2509 -0.0177
vn 1.0000 0.0000 0.0000
vn 0.0000 0.9731 0.2303
vn 0.0000 -0.7044 0.7098
vn 0.0000 -0.6519 -0.7583
vn 0.0000 -0.6555 -0.7552
vn 0.0000 -0.0910 -0.9958
vn 0.0000 -0.9975 -0.0705
vn 0.0000 0.2303 -0.9731
vn 0.0000 -0.5253 -0.8509
vn 0.0000 -0.7552 0.6555
vn 0.0000 -0.0658 0.9978
vn 0.0000 0.0705 -0.9975
vn 0.0000 -0.0753 0.9972
vn 0.0000 -0.0705 0.9975
vn 0.0000 0.6398 -0.7686
vn 0.0000 0.7552 -0.6555
vn 0.0000 0.0658 -0.9978
vn 0.0000 0.6555 0.7552
vn 0.0000 0.9975 0.0705
vn 0.0000 -0.6398 0.7686
vn 0.0000 -0.2303 0.9731
vn 0.0000 0.5975 0.8019
vn 0.0000 0.4260 -0.9047
vn 0.0000 -0.9557 0.2945
vn 0.0000 -0.4260 0.9047
vn 0.0000 0.9958 -0.0910
vn 0.0000 0.7521 -0.6590
vn 0.0000 0.2945 0.9557
vn 0.0000 0.7686 0.6398
vn 0.0000 -0.2945 -0.9557
vn 0.0000 0.9972 0.0753
vn 0.0000 -0.9978 -0.0658
vn 0.0000 0.0910 0.9958
vn 0.0000 0.8509 -0.5253
vn 0.0000 -0.8509 0.5253
vn 0.0000 -0.9958 0.0910
vn 0.0000 -0.9410 0.3385
vn 0.0000 0.5253 0.8509
vn 0.0000 -0.9731 -0.2303
vn 0.0000 0.8840 0.4675
vn 0.0000 0.0753 -0.9972
vn 0.0000 0.9047 0.4260
vn 0.0000 -0.7686 -0.6398
vn -0.9583 0.1093 -0.2639
vn -0.9583 -0.1093 -0.2639
vn -0.9583 -0.2639 0.1093
vn -0.9583 0.1093 0.2639
vn -0.9583 0.2639 -0.1093
vn -0.9583 -0.2639 -0.1093
vn -0.9583 -0.1093 0.2639
vn -0.9583 0.2639 0.1093
vn -0.9948 -0.0940 -0.0389
vn -0.9948 -0.0389 -0.0940
vn -0.9948 0.0389 -0.0940
vn -0.9948 0.0940 -0.0389
vn -0.9948 0.0940 0.0389
vn -0.9948 0.0389 0.0940
vn -0.9948 -0.0389 0.0940
vn -0.9948 -0.0940 0.0389
vn 0.0000 0.5265 -0.8502
vn 0.0000 -0.9239 -0.3827
vn 0.0000 -0.3827 -0.9239
vn 0.0000 -0.2289 -0.9735
vn 0.0000 -0.9239 0.3827
vn 0.0000 -0.3783 0.9257
vn 0.0000 0.3827 -0.9239
vn 0.0000 -0.3870 0.9221
vn 0.0000 -0.3827 0.9239
vn 0.0000 0.8502 -0.5265
vn 0.0000 0.9239 -0.3827
vn 0.0000 0.3783 -0.9257
vn 0.0000 0.3827 0.9239
vn 0.0000 0.9239 0.3827
vn 0.0000 -0.8502 0.5265
vn 0.0000 -0.5265 0.8502
vn 0.0000 0.9257 -0.3783
vn 0.0000 -0.9221 0.3870
vn 0.0000 -0.9257 0.3783
vn 0.0000 0.9735 0.2289
vn 0.0000 0.9221 -0.3871
vn 0.0000 0.3870 0.9221
vn 0.0000 0.5265 0.8502
vn 0.0000 -0.3871 -0.9221
vn 0.0000 0.9221 0.3871
vn 0.0000 -0.9257 -0.3783
vn 0.0000 -0.2289 0.9735
vn 0.0000 0.9735 -0.2289
vn 0.0000 -0.9735 0.2289
vn 0.0000 -0.9735 -0.2289
vn 0.0000 -0.9221 -0.3871
vn 0.0000 0.2289 0.9735
vn 0.0000 -0.8502 -0.5265
vn 0.0000 0.9257 0.3783
vn 0.0000 0.3870 -0.9221
vn 0.0000 0.3783 0.9257
vn 0.0000 -0.5265 -0.8502
vn 0.0000 0.8502 0.5265
vn 0.0000 -0.3783 -0.9257
vn 0.0000 0.2289 -0.9735
vn -0.4556 0.8699 -0.1887
vn 0.4556 0.8699 -0.1887
vn 0.1887 0.8699 0.4556
vn -0.4556 0.8699 0.1887
vn -0.1887 0.8699 -0.4556
vn 0.1887 0.8699 -0.4556
vn 0.4556 0.8699 0.1887
vn -0.1887 0.8699 0.4556
vn 0.0310 0.9967 -0.0749
vn 0.0749 0.9967 0.0310
vn -0.0310 0.9967 0.0749
vn -0.0749 0.9967 -0.0310
vn 0.0749 0.9967 -0.0310
vn 0.0310 0.9967 0.0749
vn -0.0749 0.9967 0.0310
vn -0.0310 0.9967 -0.0749
vn 0.7446 0.2555 -0.6167
vn 0.7446 -0.2555 -0.6167
vn 0.7446 -0.6167 0.2555
vn 0.7446 0.2555 0.6167
vn 0.7446 0.6167 -0.2555
vn 0.7446 -0.6167 -0.2555
vn 0.7446 -0.2555 0.6167
vn 0.7446 0.6167 0.2555
vn 0.9809 0.0745 0.1798
vn 0.9809 0.1798 -0.0745
vn 0.9809 -0.1798 -0.0745
vn 0.9809 -0.0745 0.1798
vn 0.9809 0.1798 0.0745
vn 0.9809 0.0745 -0.1798
vn 0.9809 -0.0745 -0.1798
vn 0.9809 -0.1798 0.0745
vn 0.9946 -0.0396 -0.0956
vn 0.9946 -0.0956 0.0396
vn 0.9946 0.0396 0.0956
vn 0.9946 0.0956 -0.0396
vn 0.9946 -0.0956 -0.0396
vn 0.9946 -0.0396 0.0956
vn 0.9946 0.0956 0.0396
vn 0.9946 0.0396 -0.0956
vn 0.3806 -0.1053 -0.9187
vn 0.9187 -0.1053 0.3806
vn -0.3806 -0.1053 0.9187
vn -0.9187 -0.1053 -0.3806
vn 0.9187 -0.1053 -0.3806
vn 0.3806 -0.1053 0.9187
vn -0.9187 -0.1053 0.3806
vn -0.3806 -0.1053 -0.9187
vn 0.0000 -1.0000 0.0000
vn 0.9239 0.0000 0.3827
vn -0.3827 0.0000 0.9239
vn -0.9239 0.0000 -0.3827
vn 0.9239 -0.0000 -0.3827
vn 0.3827 -0.0000 0.9239
vn -0.9239 0.0000 0.3827
vn -0.3827 0.0000 -0.9239
vn 0.3827 -0.0000 -0.9239
vn 0.0000 1.0000 -0.0000
usemtl 8BC34A
s off
f 73//1 170//1 171//1 74//1
f 71//2 168//2 169//2 72//2
f 69//3 166//3 167//3 70//3
f 67//4 164//4 165//4 68//4
f 74//5 171//5 164//5 67//5
f 72//6 169//6 170//6 73//6
f 70//7 167//7 168//7 71//7
f 68//8 165//8 166//8 69//8
f 170//9 178//9 179//9 171//9
f 168//10 176//10 177//10 169//10
f 166//11 174//11 175//11 167//11
f 164//12 172//12 173//12 165//12
f 171//13 179//13 172//13 164//13
f 169//14 177//14 178//14 170//14
f 167//15 175//15 176//15 168//15
f 165//16 173//16 174//16 166//16
f 175//17 183//17 184//17 176//17
f 173//18 181//18 182//18 174//18
f 178//19 186//19 187//19 179//19
f 176//20 184//20 185//20 177//20
f 174//21 182//21 183//21 175//21
f 172//22 180//22 181//22 173//22
f 179//23 187//23 180//23 172//23
f 177//24 185//24 186//24 178//24
f 204//25 195//25 188//25 205//25
f 206//26 193//26 194//26 207//26
f 208//27 191//27 192//27 209//27
f 210//28 189//28 190//28 211//28
f 207//29 194//29 195//29 204//29
f 209//30 192//30 193//30 206//30
f 211//31 190//31 191//31 208//31
f 205//32 188//32 189//32 210//32
f 212//33 200//33 201//33 213//33
f 214//34 198//34 199//34 215//34
f 216//35 196//35 197//35 217//35
f 218//36 203//36 196//36 216//36
f 213//37 201//37 202//37 219//37
f 215//38 199//38 200//38 212//38
f 217//39 197//39 198//39 214//39
f 219//40 202//40 203//40 218//40
f 180//41 205//41 210//41 181//41
f 182//42 211//42 208//42 183//42
f 184//43 209//43 206//43 185//43
f 186//44 207//44 204//44 187//44
f 181//45 210//45 211//45 182//45
f 183//46 208//46 209//46 184//46
f 185//47 206//47 207//47 186//47
f 187//48 204//48 205//48 180//48
f 194//49 219//49 218//49 195//49
f 189//50 217//50 214//50 190//50
f 191//51 215//51 212//51 192//51
f 193//52 213//52 219//52 194//52
f 195//53 218//53 216//53 188//53
f 188//54 216//54 217//54 189//54
f 190//55 214//55 215//55 191//55
f 192//56 212//56 213//56 193//56
f 202//57 226//57 227//57 203//57
f 200//58 224//58 225//58 201//58
f 198//59 222//59 223//59 199//59
f 196//60 220//60 221//60 197//60
f 203//61 227//61 220//61 196//61
f 201//62 225//62 226//62 202//62
f 199//63 223//63 224//63 200//63
f 197//64 221//64 222//64 198//64
f 355//65 320//65 321//65 357//65
f 318//66 324//66 360//66 353//66
f 321//67 327//67 364//67 357//67
f 354//68 359//68 325//68 319//68
f 362//69 364//69 327//69 326//69
f 322//70 323//70 363//70 361//70
f 324//71 322//71 361//71 360//71
f 316//72 356//72 358//72 317//72
f 319//73 325//73 326//73 320//73
f 316//74 322//74 324//74 318//74
f 354//75 319//75 320//75 355//75
f 358//76 363//76 323//76 317//76
f 320//77 326//77 327//77 321//77
f 317//78 323//78 322//78 316//78
f 359//79 362//79 326//79 325//79
f 343//80 332//80 333//80 345//80
f 330//81 336//81 348//81 341//81
f 333//82 339//82 352//82 345//82
f 342//83 347//83 337//83 331//83
f 350//84 352//84 339//84 338//84
f 334//85 335//85 351//85 349//85
f 336//86 334//86 349//86 348//86
f 328//87 344//87 346//87 329//87
f 331//88 337//88 338//88 332//88
f 328//89 334//89 336//89 330//89
f 342//90 331//90 332//90 343//90
f 346//91 351//91 335//91 329//91
f 332//92 338//92 339//92 333//92
f 329//93 335//93 334//93 328//93
f 347//94 350//94 338//94 337//94
f 220//95 227//95 340//95
f 226//95 225//95 340//95
f 224//95 223//95 340//95
f 222//95 221//95 340//95
f 227//95 226//95 340//95
f 225//95 224//95 340//95
f 223//95 222//95 340//95
f 221//95 220//95 340//95
f 344//96 341//96 342//96 343//96
f 346//97 344//97 343//97 345//97
f 350//98 347//98 348//98 349//98
f 352//99 350//99 349//99 351//99
f 347//100 342//100 341//100 348//100
f 345//101 352//101 351//101 346//101
f 330//102 341//102 344//102 328//102
f 356//103 353//103 354//103 355//103
f 358//104 356//104 355//104 357//104
f 362//105 359//105 360//105 361//105
f 364//106 362//106 361//106 363//106
f 359//107 354//107 353//107 360//107
f 357//108 364//108 363//108 358//108
f 318//109 353//109 356//109 316//109
f 379//80 369//80 370//80 381//80
f 367//81 373//81 384//81 377//81
f 370//82 376//82 388//82 381//82
f 378//83 383//83 374//83 368//83
f 386//84 388//84 376//84 375//84
f 371//85 372//85 387//85 385//85
f 373//86 371//86 385//86 384//86
f 365//87 380//87 382//87 366//87
f 368//110 374//110 375//110 369//110
f 365//89 371//89 373//89 367//89
f 378//90 368//90 369//90 379//90
f 382//91 387//91 372//91 366//91
f 369//92 375//92 376//92 370//92
f 366//93 372//93 371//93 365//93
f 383//94 386//94 375//94 374//94
f 380//96 377//96 378//96 379//96
f 382//97 380//97 379//97 381//97
f 386//98 383//98 384//98 385//98
f 388//99 386//99 385//99 387//99
f 383//100 378//100 377//100 384//100
f 381//101 388//101 387//101 382//101
f 367//102 377//102 380//102 365//102
usemtl FF9800
f 117//111 118//111 111//111 112//111
f 118//112 119//112 308//112 309//112
f 119//113 120//113 114//113 115//113
f 120//114 121//114 311//114 310//114
f 121//115 123//115 312//115 92//115
f 123//116 122//116 106//116 107//116
f 122//117 116//117 109//117 313//117
f 116//118 117//118 315//118 314//118
f 310//119 311//119 96//119 97//119
f 309//120 308//120 99//120 100//120
f 314//121 315//121 102//121 103//121
f 92//122 312//122 94//122 95//122
f 115//123 114//123 113//123 98//123
f 112//124 111//124 110//124 101//124
f 313//125 109//125 108//125 104//125
f 107//126 106//126 105//126 93//126
f 152//127 144//127 145//127 153//127
f 151//128 138//128 146//128 150//128
f 162//129 147//129 133//129 163//129
f 158//130 140//130 142//130 159//130
f 154//131 136//131 137//131 155//131
f 148//132 139//132 132//132 149//132
f 161//133 141//133 134//133 160//133
f 156//134 135//134 143//134 157//134
f 131//135 148//135 149//135 130//135
f 124//135 151//135 150//135 131//135
f 125//135 152//135 153//135 124//135
f 126//135 154//135 155//135 125//135
f 127//135 156//135 157//135 126//135
f 128//135 158//135 159//135 127//135
f 129//135 161//135 160//135 128//135
f 130//135 162//135 163//135 129//135
f 244//136 245//136 246//136 258//136
f 265//137 242//137 243//137 247//137
f 239//138 240//138 241//138 250//138
f 236//139 237//139 238//139 253//139
f 259//140 264//140 257//140 256//140
f 266//141 267//141 249//141 248//141
f 261//142 260//142 252//142 251//142
f 262//143 263//143 255//143 254//143
f 235//144 234//144 267//144 266//144
f 229//144 235//144 242//144 265//144
f 228//144 229//144 245//144 244//144
f 230//144 228//144 264//144 259//144
f 231//144 230//144 263//144 262//144
f 232//144 231//144 237//144 236//144
f 233//144 232//144 260//144 261//144
f 234//144 233//144 240//144 239//144
f 136//145 154//145 259//145 256//145
f 126//146 125//146 228//146 230//146
f 125//147 155//147 264//147 228//147
f 146//148 138//148 247//148 243//148
f 155//149 137//149 257//149 264//149
f 127//150 126//150 230//150 231//150
f 138//151 151//151 265//151 247//151
f 132//150 139//150 248//150 249//150
f 128//148 127//148 231//148 232//148
f 139//152 148//152 266//152 248//152
f 133//153 147//153 250//153 241//153
f 156//154 127//154 231//154 262//154
f 129//155 128//155 232//155 233//155
f 130//156 149//156 267//156 234//156
f 134//157 141//157 251//157 252//157
f 157//158 143//158 255//158 263//158
f 130//159 129//159 233//159 234//159
f 148//160 131//160 235//160 266//160
f 142//161 140//161 253//161 238//161
f 131//162 130//162 234//162 235//162
f 149//163 132//163 249//163 267//163
f 143//162 135//162 254//162 255//162
f 140//164 158//164 236//164 253//164
f 124//165 131//165 235//165 229//165
f 137//159 136//159 256//159 257//159
f 127//166 159//166 237//166 231//166
f 158//167 128//167 232//167 236//167
f 131//168 150//168 242//168 235//168
f 145//155 144//155 258//155 246//155
f 159//169 142//169 238//169 237//169
f 151//170 124//170 229//170 265//170
f 154//171 126//171 230//171 259//171
f 160//172 134//172 252//172 260//172
f 162//173 130//173 234//173 239//173
f 128//174 160//174 260//174 232//174
f 161//175 129//175 233//175 261//175
f 163//176 133//176 241//176 240//176
f 144//177 152//177 244//177 258//177
f 141//178 161//178 261//178 251//178
f 150//179 146//179 243//179 242//179
f 124//180 153//180 245//180 229//180
f 135//181 156//181 262//181 254//181
f 147//182 162//182 239//182 250//182
f 152//183 125//183 228//183 244//183
f 125//157 124//157 229//157 228//157
f 126//184 157//184 263//184 230//184
f 129//185 163//185 240//185 233//185
f 153//186 145//186 246//186 245//186
f 296//187 288//187 289//187 297//187
f 295//188 282//188 290//188 294//188
f 306//189 291//189 277//189 307//189
f 302//190 284//190 286//190 303//190
f 298//191 280//191 281//191 299//191
f 292//192 283//192 276//192 293//192
f 305//193 285//193 278//193 304//193
f 300//194 279//194 287//194 301//194
f 275//195 292//195 293//195 274//195
f 268//196 295//196 294//196 275//196
f 269//197 296//197 297//197 268//197
f 270//198 298//198 299//198 269//198
f 271//199 300//199 301//199 270//199
f 272//200 302//200 303//200 271//200
f 273//201 305//201 304//201 272//201
f 274//202 306//202 307//202 273//202
f 282//203 295//203 313//203 104//203
f 276//204 283//204 103//204 102//204
f 272//205 271//205 120//205 119//205
f 283//206 292//206 314//206 103//206
f 277//207 291//207 101//207 110//207
f 300//208 271//208 120//208 310//208
f 273//209 272//209 119//209 118//209
f 274//210 293//210 315//210 117//210
f 278//211 285//211 100//211 99//211
f 301//212 287//212 96//212 311//212
f 274//213 273//213 118//213 117//213
f 292//214 275//214 116//214 314//214
f 286//215 284//215 98//215 113//215
f 275//216 274//216 117//216 116//216
f 293//217 276//217 102//217 315//217
f 287//216 279//216 97//216 96//216
f 284//218 302//218 115//218 98//218
f 268//215 275//215 116//215 122//215
f 281//213 280//213 95//213 94//213
f 271//219 303//219 114//219 120//219
f 302//220 272//220 119//220 115//220
f 275//221 294//221 109//221 116//221
f 289//209 288//209 93//209 105//209
f 303//222 286//222 113//222 114//222
f 295//223 268//223 122//223 313//223
f 298//224 270//224 121//224 92//224
f 304//225 278//225 99//225 308//225
f 306//226 274//226 117//226 112//226
f 272//227 304//227 308//227 119//227
f 305//228 273//228 118//228 309//228
f 307//229 277//229 110//229 111//229
f 288//230 296//230 107//230 93//230
f 285//231 305//231 309//231 100//231
f 294//232 290//232 108//232 109//232
f 268//233 297//233 106//233 122//233
f 279//234 300//234 310//234 97//234
f 291//235 306//235 112//235 101//235
f 296//236 269//236 123//236 107//236
f 269//211 268//211 122//211 123//211
f 270//237 301//237 311//237 121//237
f 273//238 307//238 111//238 118//238
f 297//239 289//239 105//239 106//239
f 280//240 298//240 92//240 95//240
f 270//207 269//207 123//207 121//207
f 269//241 299//241 312//241 123//241
f 290//205 282//205 104//205 108//205
f 299//242 281//242 94//242 312//242
f 271//204 270//204 121//204 120//204
usemtl 795548
f 43//243 51//243 50//243 42//243
f 48//244 56//244 55//244 47//244
f 46//245 54//245 53//245 45//245
f 44//246 52//246 51//246 43//246
f 42//247 50//247 49//247 41//247
f 41//248 49//248 56//248 48//248
f 47//249 55//249 54//249 46//249
f 45//250 53//250 52//250 44//250
f 49//251 57//251 56//251
f 55//252 57//252 54//252
f 53//253 57//253 52//253
f 51//254 57//254 50//254
f 56//255 57//255 55//255
f 54//256 57//256 53//256
f 52//257 57//257 51//257
f 50//258 57//258 49//258
f 67//259 68//259 76//259 75//259
f 74//260 67//260 75//260 82//260
f 72//261 73//261 81//261 80//261
f 70//262 71//262 79//262 78//262
f 68//263 69//263 77//263 76//263
f 73//264 74//264 82//264 81//264
f 71//265 72//265 80//265 79//265
f 69//266 70//266 78//266 77//266
f 78//267 79//267 87//267 86//267
f 76//268 77//268 85//268 84//268
f 81//269 82//269 90//269 89//269
f 79//270 80//270 88//270 87//270
f 77//271 78//271 86//271 85//271
f 75//272 76//272 84//272 83//272
f 82//273 75//273 83//273 90//273
f 80//274 81//274 89//274 88//274
f 90//275 83//275 91//275
f 88//276 89//276 91//276
f 86//277 87//277 91//277
f 84//278 85//278 91//278
f 89//279 90//279 91//279
f 87//280 88//280 91//280
f 85//281 86//281 91//281
f 83//282 84//282 91//282
usemtl F06292
f 1//283 9//283 16//283 8//283
f 7//284 15//284 14//284 6//284
f 5//285 13//285 12//285 4//285
f 3//286 11//286 10//286 2//286
f 8//287 16//287 15//287 7//287
f 6//288 14//288 13//288 5//288
f 4//289 12//289 11//289 3//289
f 2//290 10//290 9//290 1//290
f 16//291 24//291 23//291 15//291
f 14//291 22//291 21//291 13//291
f 12//291 20//291 19//291 11//291
f 10//291 18//291 17//291 9//291
f 9//291 17//291 24//291 16//291
f 15//291 23//291 22//291 14//291
f 13//291 21//291 20//291 12//291
f 11//291 19//291 18//291 10//291
f 23//292 31//292 30//292 22//292
f 21//293 29//293 28//293 20//293
f 19//294 27//294 26//294 18//294
f 24//295 32//295 31//295 23//295
f 22//296 30//296 29//296 21//296
f 20//297 28//297 27//297 19//297
f 18//298 26//298 25//298 17//298
f 17//299 25//299 32//299 24//299
f 26//300 34//300 33//300 25//300
f 25//300 33//300 40//300 32//300
f 31//300 39//300 38//300 30//300
f 29//300 37//300 36//300 28//300
f 27//300 35//300 34//300 26//300
f 32//300 40//300 39//300 31//300
f 30//300 38//300 37//300 29//300
f 28//300 36//300 35//300 27//300
f 40//297 48//297 47//297 39//297
f 38//298 46//298 45//298 37//298
f 36//295 44//295 43//295 35//295
f 34//296 42//296 41//296 33//296
f 33//293 41//293 48//293 40//293
f 39//294 47//294 46//294 38//294
f 37//299 45//299 44//299 36//299
f 35//292 43//292 42//292 34//292
f 8//291 65//291 64//291 1//291
f 6//291 59//291 58//291 7//291
f 4//291 61//291 60//291 5//291
f 2//291 63//291 62//291 3//291
f 7//291 58//291 65//291 8//291
f 5//291 60//291 59//291 6//291
f 3//291 62//291 61//291 4//291
f 1//291 64//291 63//291 2//291
f 62//291 66//291 61//291
f 60//291 66//291 59//291
f 65//291 66//291 64//291
f 63//291 66//291 62//291
f 61//291 66//291 60//291
f 59//291 66//291 58//291
f 58//291 66//291 65//291
f 64//291 66//291 63//291
